<svg xmlns="http://www.w3.org/2000/svg" viewBox="0 0 840.26 115.04"><defs><style>.cls-1{fill:#6a7989;opacity:0.8;}.cls-2{font-size:54px;fill:#fff;font-family:SpaceMono-Regular, Space Mono;}.cls-3{fill:#676f9c;}.cls-3,.cls-4,.cls-5{opacity:0.39;isolation:isolate;}.cls-4{fill:#273051;}.cls-5{fill:#b1ccdb;}</style></defs><title>Logo</title><g id="Layer_2" data-name="Layer 2"><g id="Layer_1-2" data-name="Layer 1"><rect class="cls-1" x="265.67" y="11.47" width="574.59" height="92.11"/><text class="cls-2" transform="translate(287.58 76.54)">ANDERS MIKKELSEN</text><g id="Layer_2-2" data-name="Layer 2"><g id="Layer_5" data-name="Layer 5"><polygon class="cls-3" points="113.7 76.29 37.63 76.29 75.66 38.25 113.7 76.29"/><polygon class="cls-4" points="151.77 38.03 75.7 38.03 113.74 0 151.77 38.03"/><polygon class="cls-3" points="189.86 76.29 113.79 76.29 151.82 38.25 189.86 76.29"/><polygon class="cls-5" points="76.07 115.04 0 115.04 38.03 77.01 76.07 115.04"/><polygon class="cls-5" points="152.23 115.04 76.16 115.04 114.19 77.01 152.23 115.04"/><polygon class="cls-5" points="228.4 115.04 152.34 115.04 190.37 77.01 228.4 115.04"/><polygon class="cls-5" points="75.83 37.82 151.9 37.82 113.87 75.86 75.83 37.82"/><polygon class="cls-4" points="37.99 76.49 114.06 76.49 76.02 114.52 37.99 76.49"/><polygon class="cls-4" points="113.87 76.49 189.94 76.49 151.9 114.52 113.87 76.49"/></g></g></g></g></svg>