<svg xmlns="http://www.w3.org/2000/svg" viewBox="0 0 329.91 302.64"><defs><style>.cls-1{fill:none;stroke:#ccc;stroke-miterlimit:10;}</style></defs><title>BG3</title><g id="Layer_2" data-name="Layer 2"><g id="Layer_2-2" data-name="Layer 2"><circle class="cls-1" cx="42.05" cy="41.52" r="40.75"/><circle class="cls-1" cx="41.8" cy="41.6" r="34.13"/><circle class="cls-1" cx="41.76" cy="41.64" r="26.91"/><circle class="cls-1" cx="41.54" cy="41.3" r="21.16"/><circle class="cls-1" cx="41.63" cy="41.21" r="14.37"/><circle class="cls-1" cx="165.45" cy="41.25" r="40.75"/><circle class="cls-1" cx="165.21" cy="41.33" r="34.13"/><circle class="cls-1" cx="165.17" cy="41.37" r="26.91"/><circle class="cls-1" cx="164.95" cy="41.03" r="21.16"/><circle class="cls-1" cx="165.04" cy="40.94" r="14.37"/><circle class="cls-1" cx="288.45" cy="41.25" r="40.75"/><circle class="cls-1" cx="288.21" cy="41.33" r="34.13"/><circle class="cls-1" cx="288.17" cy="41.37" r="26.91"/><circle class="cls-1" cx="287.95" cy="41.03" r="21.16"/><circle class="cls-1" cx="288.04" cy="40.94" r="14.37"/><circle class="cls-1" cx="41.25" cy="151.39" r="40.75"/><circle class="cls-1" cx="41" cy="151.47" r="34.13"/><circle class="cls-1" cx="40.96" cy="151.51" r="26.91"/><circle class="cls-1" cx="40.75" cy="151.16" r="21.16"/><circle class="cls-1" cx="40.84" cy="151.08" r="14.37"/><circle class="cls-1" cx="164.66" cy="151.11" r="40.75"/><circle class="cls-1" cx="164.41" cy="151.19" r="34.13"/><circle class="cls-1" cx="164.37" cy="151.23" r="26.91"/><circle class="cls-1" cx="164.16" cy="150.89" r="21.16"/><circle class="cls-1" cx="164.24" cy="150.8" r="14.37"/><circle class="cls-1" cx="287.66" cy="151.11" r="40.75"/><circle class="cls-1" cx="287.41" cy="151.19" r="34.13"/><circle class="cls-1" cx="287.37" cy="151.23" r="26.91"/><circle class="cls-1" cx="287.16" cy="150.89" r="21.16"/><circle class="cls-1" cx="287.24" cy="150.8" r="14.37"/><circle class="cls-1" cx="42.25" cy="261.39" r="40.75"/><circle class="cls-1" cx="42" cy="261.47" r="34.13"/><circle class="cls-1" cx="41.96" cy="261.51" r="26.91"/><circle class="cls-1" cx="41.75" cy="261.16" r="21.16"/><circle class="cls-1" cx="41.84" cy="261.08" r="14.37"/><circle class="cls-1" cx="165.66" cy="261.11" r="40.75"/><circle class="cls-1" cx="165.41" cy="261.19" r="34.13"/><circle class="cls-1" cx="165.37" cy="261.23" r="26.91"/><circle class="cls-1" cx="165.16" cy="260.89" r="21.16"/><circle class="cls-1" cx="165.24" cy="260.8" r="14.37"/><circle class="cls-1" cx="288.66" cy="261.11" r="40.75"/><circle class="cls-1" cx="288.41" cy="261.19" r="34.13"/><circle class="cls-1" cx="288.37" cy="261.23" r="26.91"/><circle class="cls-1" cx="288.16" cy="260.89" r="21.16"/><circle class="cls-1" cx="288.24" cy="260.8" r="14.37"/></g></g></svg>