<svg xmlns="http://www.w3.org/2000/svg" viewBox="0 0 543 497"><defs><style>.cls-1{fill:#eceff1;}.cls-2,.cls-3{fill:none;}.cls-3{stroke:#ccc;stroke-miterlimit:10;}</style></defs><title>BG4</title><g id="Layer_2" data-name="Layer 2"><g id="Layer_2-2" data-name="Layer 2"><circle class="cls-1" cx="72" cy="227" r="51"/><circle class="cls-1" cx="441" cy="255" r="51"/><circle class="cls-1" cx="242" cy="329" r="51"/><circle class="cls-1" cx="253" cy="164" r="51"/><circle class="cls-1" cx="51" cy="395" r="51"/><circle class="cls-1" cx="416" cy="71" r="51"/><circle class="cls-1" cx="118" cy="62" r="51"/><circle class="cls-1" cx="406" cy="439" r="51"/></g><g id="Layer_3" data-name="Layer 3"><rect class="cls-2" width="543" height="497"/><circle class="cls-3" cx="136.75" cy="127.18" r="40.75"/><circle class="cls-3" cx="136.5" cy="127.26" r="34.13"/><circle class="cls-3" cx="136.46" cy="127.3" r="26.91"/><circle class="cls-3" cx="136.25" cy="126.96" r="21.16"/><circle class="cls-3" cx="136.34" cy="126.87" r="14.37"/><circle class="cls-3" cx="260.16" cy="126.91" r="40.75"/><circle class="cls-3" cx="259.91" cy="126.99" r="34.13"/><circle class="cls-3" cx="259.87" cy="127.03" r="26.91"/><circle class="cls-3" cx="259.66" cy="126.69" r="21.16"/><circle class="cls-3" cx="259.74" cy="126.6" r="14.37"/><circle class="cls-3" cx="383.16" cy="126.91" r="40.75"/><circle class="cls-3" cx="382.91" cy="126.99" r="34.13"/><circle class="cls-3" cx="382.87" cy="127.03" r="26.91"/><circle class="cls-3" cx="382.66" cy="126.69" r="21.16"/><circle class="cls-3" cx="382.74" cy="126.6" r="14.37"/><circle class="cls-3" cx="135.95" cy="237.05" r="40.75"/><circle class="cls-3" cx="135.71" cy="237.13" r="34.13"/><circle class="cls-3" cx="135.67" cy="237.17" r="26.91"/><circle class="cls-3" cx="135.45" cy="236.82" r="21.16"/><circle class="cls-3" cx="135.54" cy="236.74" r="14.37"/><circle class="cls-3" cx="259.36" cy="236.78" r="40.75"/><circle class="cls-3" cx="259.12" cy="236.86" r="34.13"/><circle class="cls-3" cx="259.08" cy="236.9" r="26.91"/><circle class="cls-3" cx="258.86" cy="236.55" r="21.16"/><circle class="cls-3" cx="258.95" cy="236.47" r="14.37"/><circle class="cls-3" cx="382.36" cy="236.78" r="40.75"/><circle class="cls-3" cx="382.12" cy="236.86" r="34.13"/><circle class="cls-3" cx="382.08" cy="236.9" r="26.91"/><circle class="cls-3" cx="381.86" cy="236.55" r="21.16"/><circle class="cls-3" cx="381.95" cy="236.47" r="14.37"/><circle class="cls-3" cx="136.95" cy="347.05" r="40.75"/><circle class="cls-3" cx="136.71" cy="347.13" r="34.13"/><circle class="cls-3" cx="136.67" cy="347.17" r="26.91"/><circle class="cls-3" cx="136.45" cy="346.82" r="21.16"/><circle class="cls-3" cx="136.54" cy="346.74" r="14.37"/><circle class="cls-3" cx="260.36" cy="346.78" r="40.75"/><circle class="cls-3" cx="260.12" cy="346.86" r="34.13"/><circle class="cls-3" cx="260.08" cy="346.9" r="26.91"/><circle class="cls-3" cx="259.86" cy="346.55" r="21.16"/><circle class="cls-3" cx="259.95" cy="346.47" r="14.37"/><circle class="cls-3" cx="383.36" cy="346.78" r="40.75"/><circle class="cls-3" cx="383.12" cy="346.86" r="34.13"/><circle class="cls-3" cx="383.08" cy="346.9" r="26.91"/><circle class="cls-3" cx="382.86" cy="346.55" r="21.16"/><circle class="cls-3" cx="382.95" cy="346.47" r="14.37"/></g></g></svg>