<svg xmlns="http://www.w3.org/2000/svg" viewBox="0 0 2276.36 691.69"><defs><style>.cls-1{fill:#b3b3b3;}.cls-2{fill:#e6e6e6;}.cls-3{fill:#4d4d4d;}</style></defs><title>BG5</title><g id="Layer_2" data-name="Layer 2"><g id="Layer_5" data-name="Layer 5"><polygon class="cls-1" points="680.65 456.69 225.28 456.69 452.96 229 680.65 456.69"/><polygon class="cls-2" points="908.57 227.69 453.19 227.69 680.88 0 908.57 227.69"/><polygon class="cls-1" points="1136.57 456.69 681.19 456.69 908.88 229 1136.57 456.69"/><polygon class="cls-1" points="1592.61 459.69 1137.23 459.69 1364.92 232 1592.61 459.69"/><polygon class="cls-2" points="1820.53 230.69 1365.15 230.69 1592.84 3 1820.53 230.69"/><polygon class="cls-1" points="2048.53 459.69 1593.15 459.69 1820.84 232 2048.53 459.69"/><polygon class="cls-3" points="455.38 688.69 0 688.69 227.69 461 455.38 688.69"/><polygon class="cls-3" points="911.29 688.69 455.92 688.69 683.6 461 911.29 688.69"/><polygon class="cls-3" points="1367.33 691.69 911.96 691.69 1139.65 464 1367.33 691.69"/><polygon class="cls-3" points="1823.25 691.69 1367.87 691.69 1595.56 464 1823.25 691.69"/><polygon class="cls-3" points="2276.36 691.69 1820.98 691.69 2048.67 464 2276.36 691.69"/></g></g></svg>