<svg xmlns="http://www.w3.org/2000/svg" viewBox="0 0 2276.36 462.69"><defs><style>.cls-1{fill:#b3b3b3;}.cls-1,.cls-2{opacity:0.5;}.cls-2{fill:#4d4d4d;}</style></defs><title>Header</title><g id="Layer_2" data-name="Layer 2"><g id="Layer_5" data-name="Layer 5"><polygon class="cls-1" points="1595.7 235 2051.08 235 1823.39 462.69 1595.7 235"/><polygon class="cls-1" points="1139.79 235 1595.16 235 1367.48 462.69 1139.79 235"/><polygon class="cls-1" points="683.75 232 1139.12 232 911.43 459.69 683.75 232"/><polygon class="cls-1" points="227.83 232 683.21 232 455.52 459.69 227.83 232"/><polygon class="cls-2" points="1820.98 3 2276.36 3 2048.67 230.69 1820.98 3"/><polygon class="cls-2" points="1365.06 3 1820.44 3 1592.75 230.69 1365.06 3"/><polygon class="cls-2" points="909.02 0 1364.4 0 1136.71 227.69 909.02 0"/><polygon class="cls-2" points="453.11 0 908.48 0 680.79 227.69 453.11 0"/><polygon class="cls-2" points="0 0 455.38 0 227.69 227.69 0 0"/></g></g></svg>