<?xml version="1.0" encoding="utf-8"?>
<!-- Generator: Adobe Illustrator 22.1.0, SVG Export Plug-In . SVG Version: 6.00 Build 0)  -->
<svg version="1.1" id="Layer_1" xmlns="http://www.w3.org/2000/svg" xmlns:xlink="http://www.w3.org/1999/xlink" x="0px" y="0px"
	 viewBox="0 0 200 45" style="enable-background:new 0 0 200 45;" xml:space="preserve">
<style type="text/css">
	.st0{fill:#FFFFFF;}
</style>
<g>
	<path class="st0" d="M10.2,25.7L3.9,11.3H0l10.2,22.3l10.5-22.3h-3.9L10.2,25.7z M21.9,32.2h3.4v-0.3V15.6h-3.4V32.2z M42.5,17.3
		c-1.3-1.3-3.2-2.1-5.2-2.1c-2.5,0-4.5,1-5.9,2.6c-1.4,1.6-2.1,3.8-2.1,6.1c0,2.3,0.7,4.4,2.1,6c1.4,1.6,3.4,2.7,5.9,2.7l0,0
		c1.9,0,3.9-0.7,5.2-2.1v1.7h3.4V11.3h-3.4L42.5,17.3L42.5,17.3z M37.6,29.3c-3.1,0-4.9-2.7-4.9-5.7c0-2.8,1.9-5.3,4.9-5.3
		c3.1,0,5,2.3,5,5.3C42.6,26.8,40.9,29.3,37.6,29.3z M76.3,15.1c-1.7,0-3.1,0.7-4.3,1.8v-1.3h-3.4v16.5H72v-7.9
		c0-1.4,0.1-2.9,0.5-4.1c0.5-1.1,1.3-1.8,3-1.9c1.5,0,2.1,0.5,2.5,1.3c0.4,0.8,0.5,1.9,0.5,3.2v9.3h3.4v-9.7c0-1.9-0.3-3.7-1.1-5
		C80.1,16,78.6,15.1,76.3,15.1z M93.7,22.2c-0.9-0.4-1.9-0.7-2.5-1.1c-0.7-0.4-0.9-0.8-0.9-1.3c0-0.4,0.2-0.7,0.5-1
		c0.3-0.3,0.7-0.4,1.1-0.4c0.8,0,1.5,0.7,1.8,1.4l0.1,0.3l0.3-0.2l2.5-1.3l-0.1-0.3c-0.7-1.8-2.5-3.1-4.6-3.1
		c-1.3,0-2.6,0.5-3.5,1.3c-0.9,0.9-1.5,2.1-1.5,3.5c0,1.3,0.5,2.3,1.2,3c1.1,1.1,2.7,1.5,3.9,2.1c0.6,0.3,1.1,0.6,1.5,0.9
		c0.3,0.3,0.5,0.7,0.5,1.3c0,1.3-0.9,2.1-2.2,2.1c-1.6,0-2.2-0.9-2.9-2.3l-0.1-0.3l-3,1.3l0.1,0.3c0.9,2.6,3.1,4.3,6,4.3l0,0
		c1.5,0,3-0.6,4.1-1.5c1.1-1,1.7-2.3,1.7-3.9C97.7,24.2,95.6,22.9,93.7,22.2z M114.7,15.6H110l-5.3,5.3v-9.6h-3.4v20.8h3.4v-6.7
		l0.3-0.3l6.3,7h4.6l-8.3-9.4L114.7,15.6z M129.3,17.3c-1.3-1.3-3.1-2.1-5.2-2.1c-2.5,0-4.5,1-5.9,2.6c-1.4,1.6-2.1,3.8-2.1,6.1
		c0,2.3,0.7,4.4,2.1,6c1.4,1.6,3.4,2.7,5.9,2.7l0,0c2,0,3.8-0.7,5.2-2.1v1.7h3.4v-0.3V15.6h-3.4L129.3,17.3L129.3,17.3z M124.5,29.3
		c-3.1,0-4.9-2.7-4.9-5.7c0-2.8,1.9-5.3,4.9-5.3c3.1,0,5,2.3,5,5.3C129.4,26.8,127.7,29.3,124.5,29.3z M146.3,15.1
		c-1.9,0-3.9,0.8-5.2,2.1v-5.9h-3.4v0.3v20.5h3.4v-1.7c1.3,1.3,3.2,2.1,5.2,2.1l0,0c2.4,0,4.5-1.1,5.9-2.7c1.4-1.6,2.1-3.8,2.1-6.1
		c0-2.3-0.7-4.5-2.1-6.1C150.7,16.2,148.7,15.1,146.3,15.1z M145.9,29.3c-3.1,0-4.9-2.7-4.9-5.7c0-2.8,1.9-5.3,4.9-5.3
		c3.1,0,5,2.3,5,5.3C150.7,26.8,149.1,29.3,145.9,29.3z M177.1,17.3c-1.3-1.3-3.2-2.1-5.2-2.1c-2.5,0-4.5,1-5.9,2.6
		c-1.4,1.6-2.1,3.8-2.1,6.1c0,2.3,0.7,4.4,2.1,6c1.4,1.6,3.4,2.7,5.9,2.7l0,0c1.9,0,3.9-0.7,5.2-2.1v1.7h3.4V11.3H177L177.1,17.3
		L177.1,17.3z M172.3,29.3c-3.1,0-4.9-2.7-4.9-5.7c0-2.8,1.9-5.3,4.9-5.3c3.1,0,5,2.3,5,5.3C177.2,26.8,175.5,29.3,172.3,29.3z
		 M191.7,22.7l7.2-7.1h-4.7l-5.3,5.3v-9.6h-3.4v20.8h3.4v-6.7l0.3-0.3l6.3,7h4.6L191.7,22.7z M61.5,27.1c-0.7,1.1-1.7,1.8-3.1,2.1
		c-0.3,0.1-0.6,0.1-0.9,0.1c-2.3,0-4.1-1.5-4.7-3.7l12.3-2.1l-0.1-0.3c-0.5-4.3-3.5-7.9-7.9-7.9c-0.5,0-1,0.1-1.5,0.1
		c-4.3,0.7-6.5,4.2-6.5,8.1c0,0.7,0.1,1.3,0.2,2c0.7,4.1,3.9,7.1,7.9,7.1l0,0c0.5,0,1-0.1,1.5-0.1c2.9-0.5,5.2-2.3,6.4-4.9l0.2-0.5
		h-3.8L61.5,27.1z M56.3,18.5c0.3-0.1,0.5-0.1,0.7-0.1c1.7,0,3.3,1.1,4.1,2.7l-8.5,1.5C52.7,20.6,54.3,18.8,56.3,18.5z"/>
	<ellipse class="st0" cx="159" cy="24.1" rx="2.6" ry="2.6"/>
</g>
</svg>
